<svg width="21" height="20" viewBox="0 0 21 20" fill="none" xmlns="http://www.w3.org/2000/svg">
<path d="M7.77393 2V5.25018" stroke="white" stroke-width="1.5" stroke-linecap="round"/>
<path d="M13.5166 2V5.25018" stroke="white" stroke-width="1.5" stroke-linecap="round"/>
<path d="M3.08715 14.5116C3.29367 16.354 4.7912 17.8169 6.64302 17.9061C7.92297 17.9677 9.23048 17.9997 10.6496 17.9997C12.0686 17.9997 13.3761 17.9677 14.6561 17.9061C16.5079 17.8169 18.0055 16.354 18.2119 14.5116C18.3511 13.2709 18.4651 11.9988 18.4651 10.703C18.4651 9.40718 18.3511 8.13513 18.2119 6.89439C18.0055 5.05197 16.5079 3.58911 14.6561 3.49993C13.3761 3.43829 12.0686 3.40625 10.6496 3.40625C9.23048 3.40625 7.92297 3.43829 6.64302 3.49993C4.7912 3.58911 3.29367 5.05197 3.08715 6.89439C2.94808 8.13513 2.83398 9.40718 2.83398 10.703C2.83398 11.9988 2.94808 13.2709 3.08715 14.5116Z" stroke="white" stroke-width="1.5"/>
<path d="M6.98504 8.92028C6.80831 8.92028 6.66504 8.77701 6.66504 8.60028C6.66504 8.42354 6.80831 8.28027 6.98504 8.28027" stroke="white" stroke-width="1.5"/>
<path d="M6.98535 8.92028C7.16208 8.92028 7.30535 8.77701 7.30535 8.60028C7.30535 8.42354 7.16208 8.28027 6.98535 8.28027" stroke="white" stroke-width="1.5"/>
<path d="M6.98504 13.1C6.80831 13.1 6.66504 12.9567 6.66504 12.78C6.66504 12.6032 6.80831 12.46 6.98504 12.46" stroke="white" stroke-width="1.5"/>
<path d="M6.98535 13.1C7.16208 13.1 7.30535 12.9567 7.30535 12.78C7.30535 12.6032 7.16208 12.46 6.98535 12.46" stroke="white" stroke-width="1.5"/>
<path d="M10.6496 8.92028C10.4729 8.92028 10.3296 8.77701 10.3296 8.60028C10.3296 8.42354 10.4729 8.28027 10.6496 8.28027" stroke="white" stroke-width="1.5"/>
<path d="M10.6499 8.92028C10.8266 8.92028 10.9699 8.77701 10.9699 8.60028C10.9699 8.42354 10.8266 8.28027 10.6499 8.28027" stroke="white" stroke-width="1.5"/>
<path d="M14.3141 8.92028C14.1374 8.92028 13.9941 8.77701 13.9941 8.60028C13.9941 8.42354 14.1374 8.28027 14.3141 8.28027" stroke="white" stroke-width="1.5"/>
<path d="M14.314 8.92028C14.4907 8.92028 14.6339 8.77701 14.6339 8.60028C14.6339 8.42354 14.4907 8.28027 14.314 8.28027" stroke="white" stroke-width="1.5"/>
</svg>
